# xmcd CD database file
#
# Track frame offsets:
#	150
#	18509
#	37274
#	53447
#	69982
#	86359
#	105557
#	121801
#	141049
#	161010
#
# Disc length: 2382 seconds
#
# Revision: 0
# Processed by: cddbd v1.5.1PL0 Copyright (c) Steve Scherf et al.
# Submitted via: CDex 1.51
#
DISCID=79094c0a
DTITLE=Hayes, Bonnie - Love In The Ruins
DYEAR=2003
DGENRE=Jazz
TTITLE0=Beautiful Ideal
TTITLE1=I Can't Stop
TTITLE2=Greener Grass
TTITLE3=Keeping The Hum Going
TTITLE4=Still Wild
TTITLE5=Stealing Roses
TTITLE6=Everybody Wins
TTITLE7=Turn Down Love
TTITLE8=Vintage People
TTITLE9=Money Makes You Stupid
EXTD=YEAR: 2003
EXTT0=
EXTT1=
EXTT2=
EXTT3=
EXTT4=
EXTT5=
EXTT6=
EXTT7=
EXTT8=
EXTT9=
PLAYORDER=
